<mxfile host="app.diagrams.net" modified="2022-03-23T06:37:39.763Z" agent="5.0 (Windows NT 10.0; Win64; x64) AppleWebKit/537.36 (KHTML, like Gecko) Chrome/99.0.4844.74 Safari/537.36" etag="vy27XLyRle60nqqUwGEV" version="17.1.5" type="github">
  <diagram id="rWemN9Q33kSiqdZsMoBm" name="Page-1">
    <mxGraphModel dx="1422" dy="794" grid="1" gridSize="10" guides="1" tooltips="1" connect="1" arrows="1" fold="1" page="1" pageScale="1" pageWidth="850" pageHeight="1100" math="0" shadow="0">
      <root>
        <mxCell id="0" />
        <mxCell id="1" parent="0" />
        <mxCell id="6d5WSO9pPoGUkMAywGen-4" value="" style="rounded=0;whiteSpace=wrap;html=1;fillColor=#fff2cc;strokeColor=#d6b656;" vertex="1" parent="1">
          <mxGeometry x="160" y="180" width="250" height="260" as="geometry" />
        </mxCell>
        <mxCell id="6d5WSO9pPoGUkMAywGen-1" value="request" style="rounded=0;whiteSpace=wrap;html=1;" vertex="1" parent="1">
          <mxGeometry x="20" y="210" width="120" height="60" as="geometry" />
        </mxCell>
        <mxCell id="6d5WSO9pPoGUkMAywGen-2" value="response" style="rounded=0;whiteSpace=wrap;html=1;" vertex="1" parent="1">
          <mxGeometry x="20" y="320" width="120" height="60" as="geometry" />
        </mxCell>
        <mxCell id="6d5WSO9pPoGUkMAywGen-3" value="-JavaFX&lt;br&gt;&lt;br&gt;&lt;br&gt;&lt;br&gt;-JSP and Java Servlets" style="rounded=0;whiteSpace=wrap;html=1;fillColor=#dae8fc;strokeColor=#6c8ebf;" vertex="1" parent="1">
          <mxGeometry x="170" y="220" width="230" height="170" as="geometry" />
        </mxCell>
        <mxCell id="6d5WSO9pPoGUkMAywGen-5" value="Presentation Layer" style="text;html=1;strokeColor=none;fillColor=none;align=center;verticalAlign=middle;whiteSpace=wrap;rounded=0;" vertex="1" parent="1">
          <mxGeometry x="220" y="130" width="60" height="30" as="geometry" />
        </mxCell>
        <mxCell id="6d5WSO9pPoGUkMAywGen-6" value="Controller" style="text;html=1;strokeColor=none;fillColor=none;align=center;verticalAlign=middle;whiteSpace=wrap;rounded=0;" vertex="1" parent="1">
          <mxGeometry x="250" y="180" width="60" height="30" as="geometry" />
        </mxCell>
        <mxCell id="6d5WSO9pPoGUkMAywGen-7" value="View" style="text;html=1;strokeColor=none;fillColor=none;align=center;verticalAlign=middle;whiteSpace=wrap;rounded=0;" vertex="1" parent="1">
          <mxGeometry x="255" y="400" width="60" height="30" as="geometry" />
        </mxCell>
        <mxCell id="6d5WSO9pPoGUkMAywGen-8" value="" style="rounded=0;whiteSpace=wrap;html=1;fillColor=#1ba1e2;fontColor=#ffffff;strokeColor=#006EAF;" vertex="1" parent="1">
          <mxGeometry x="425" y="185" width="220" height="260" as="geometry" />
        </mxCell>
        <mxCell id="6d5WSO9pPoGUkMAywGen-9" value="Business Layer" style="text;html=1;strokeColor=none;fillColor=none;align=center;verticalAlign=middle;whiteSpace=wrap;rounded=0;" vertex="1" parent="1">
          <mxGeometry x="505" y="140" width="60" height="30" as="geometry" />
        </mxCell>
        <mxCell id="6d5WSO9pPoGUkMAywGen-10" value="Model" style="text;html=1;strokeColor=none;fillColor=none;align=center;verticalAlign=middle;whiteSpace=wrap;rounded=0;" vertex="1" parent="1">
          <mxGeometry x="505" y="190" width="60" height="30" as="geometry" />
        </mxCell>
        <mxCell id="6d5WSO9pPoGUkMAywGen-11" value="(verify required fields)&lt;br&gt;&amp;nbsp;(verify customer status)&lt;br/&gt;&lt;br&gt;(verify product availability)&lt;br/&gt;(persist order)" style="rounded=0;whiteSpace=wrap;html=1;fillColor=#dae8fc;strokeColor=#6c8ebf;" vertex="1" parent="1">
          <mxGeometry x="445" y="230" width="180" height="170" as="geometry" />
        </mxCell>
        <mxCell id="6d5WSO9pPoGUkMAywGen-12" value="" style="rounded=0;whiteSpace=wrap;html=1;fillColor=#d5e8d4;strokeColor=#82b366;" vertex="1" parent="1">
          <mxGeometry x="660" y="180" width="120" height="260" as="geometry" />
        </mxCell>
        <mxCell id="6d5WSO9pPoGUkMAywGen-13" value="Data Access Layer" style="text;html=1;strokeColor=none;fillColor=none;align=center;verticalAlign=middle;whiteSpace=wrap;rounded=0;" vertex="1" parent="1">
          <mxGeometry x="680" y="140" width="60" height="30" as="geometry" />
        </mxCell>
        <mxCell id="6d5WSO9pPoGUkMAywGen-14" value="(Database)" style="rounded=0;whiteSpace=wrap;html=1;fillColor=#dae8fc;strokeColor=#6c8ebf;" vertex="1" parent="1">
          <mxGeometry x="660" y="250" width="120" height="60" as="geometry" />
        </mxCell>
        <mxCell id="6d5WSO9pPoGUkMAywGen-15" value="DAO" style="text;html=1;strokeColor=none;fillColor=none;align=center;verticalAlign=middle;whiteSpace=wrap;rounded=0;" vertex="1" parent="1">
          <mxGeometry x="690" y="190" width="60" height="30" as="geometry" />
        </mxCell>
        <mxCell id="6d5WSO9pPoGUkMAywGen-16" value="" style="endArrow=classic;html=1;rounded=0;exitX=1;exitY=0.5;exitDx=0;exitDy=0;entryX=0;entryY=0.25;entryDx=0;entryDy=0;" edge="1" parent="1" source="6d5WSO9pPoGUkMAywGen-1" target="6d5WSO9pPoGUkMAywGen-3">
          <mxGeometry width="50" height="50" relative="1" as="geometry">
            <mxPoint x="400" y="370" as="sourcePoint" />
            <mxPoint x="450" y="320" as="targetPoint" />
          </mxGeometry>
        </mxCell>
        <mxCell id="6d5WSO9pPoGUkMAywGen-20" value="" style="endArrow=classic;startArrow=classic;html=1;rounded=0;exitX=1.006;exitY=0.447;exitDx=0;exitDy=0;exitPerimeter=0;" edge="1" parent="1" source="6d5WSO9pPoGUkMAywGen-11">
          <mxGeometry width="50" height="50" relative="1" as="geometry">
            <mxPoint x="620" y="340" as="sourcePoint" />
            <mxPoint x="670" y="290" as="targetPoint" />
          </mxGeometry>
        </mxCell>
        <mxCell id="6d5WSO9pPoGUkMAywGen-23" value="" style="endArrow=classic;startArrow=classic;html=1;rounded=0;exitX=1.004;exitY=0.335;exitDx=0;exitDy=0;exitPerimeter=0;" edge="1" parent="1" source="6d5WSO9pPoGUkMAywGen-3">
          <mxGeometry width="50" height="50" relative="1" as="geometry">
            <mxPoint x="400" y="370" as="sourcePoint" />
            <mxPoint x="450" y="320" as="targetPoint" />
          </mxGeometry>
        </mxCell>
        <mxCell id="6d5WSO9pPoGUkMAywGen-24" value="" style="endArrow=classic;startArrow=classic;html=1;rounded=0;exitX=1.004;exitY=0.706;exitDx=0;exitDy=0;exitPerimeter=0;" edge="1" parent="1" source="6d5WSO9pPoGUkMAywGen-3">
          <mxGeometry width="50" height="50" relative="1" as="geometry">
            <mxPoint x="400" y="370" as="sourcePoint" />
            <mxPoint x="450" y="320" as="targetPoint" />
          </mxGeometry>
        </mxCell>
        <mxCell id="6d5WSO9pPoGUkMAywGen-25" value="" style="endArrow=classic;html=1;rounded=0;entryX=1.008;entryY=0.617;entryDx=0;entryDy=0;entryPerimeter=0;exitX=0;exitY=0.75;exitDx=0;exitDy=0;" edge="1" parent="1" source="6d5WSO9pPoGUkMAywGen-3" target="6d5WSO9pPoGUkMAywGen-2">
          <mxGeometry width="50" height="50" relative="1" as="geometry">
            <mxPoint x="400" y="370" as="sourcePoint" />
            <mxPoint x="450" y="320" as="targetPoint" />
          </mxGeometry>
        </mxCell>
      </root>
    </mxGraphModel>
  </diagram>
</mxfile>
